<?xml version="1.0" encoding="UTF-8"?>
<svg width="109px" height="27px" viewBox="0 0 109 27" version="1.1" xmlns="http://www.w3.org/2000/svg" xmlns:xlink="http://www.w3.org/1999/xlink">
    <title>Group 7</title>
    <g id="Page-1" stroke="none" stroke-width="1" fill="none" fill-rule="evenodd">
        <g id="A4" transform="translate(-309.000000, -745.000000)" fill="#FFFFFF">
            <g id="Group-6" transform="translate(309.000000, 745.000000)">
                <polygon id="Rectangle" transform="translate(8.718978, 11.076186) rotate(-56.000000) translate(-8.718978, -11.076186) " points="7.43621357 9.89572818 10.0017425 9.97666866 9.7254603 12.2566428 7.55550955 12.1701509"></polygon>
                <polygon id="Rectangle" transform="translate(11.782263, 7.887860) rotate(-39.000000) translate(-11.782263, -7.887860) " points="10.484579 6.7284877 13.079947 6.71981458 12.8729508 9.03454633 10.6554156 9.0559063"></polygon>
                <polygon id="Rectangle" transform="translate(15.561557, 5.747669) rotate(-22.000000) translate(-15.561557, -5.747669) " points="14.3145389 4.55161112 16.8085752 4.54256219 16.7199543 6.79910876 14.5141908 6.9527763"></polygon>
                <ellipse id="Oval" cx="22.3307601" cy="3.86177885" rx="3.75415677" ry="3.73197115"></ellipse>
                <polygon id="Rectangle" transform="translate(6.442024, 15.046491) rotate(-56.000000) translate(-6.442024, -15.046491) " points="5.01104376 14.3918001 7.47260977 13.6537478 7.87300344 15.9109255 5.8564932 16.4392352"></polygon>
                <rect id="Rectangle" x="0" y="18.2379808" width="17.7351544" height="2.27163462"></rect>
                <path d="M33.4462177,20.4681329 L34.1917338,14.4937163 C34.4769039,12.1750449 35.483147,11.0157092 37.2104631,11.0157092 C38.4163252,11.0157092 39.0192563,11.5246858 39.0192563,12.5426391 C39.0192563,12.8415619 38.9948131,13.1768402 38.9459268,13.548474 L38.9459268,13.548474 L38.0904165,20.4681329 L40.7913848,20.4681329 L41.6346735,13.6938959 C41.6754121,13.3303411 41.708003,13.0051616 41.7324462,12.7183573 C41.7568893,12.431553 41.7691109,12.1750449 41.7691109,11.948833 C41.7691109,11.0035907 41.4228329,10.2401257 40.7302769,9.65843806 C40.0621641,9.06867145 39.1659152,8.77378815 38.0415302,8.77378815 C36.925293,8.77378815 35.8253511,9.18985637 34.7417047,10.0219928 L34.7417047,10.0219928 L35.9883055,0 L33.2873372,0 L30.7452494,20.4681329 L33.4462177,20.4681329 Z M50.9475144,20.8316876 C52.7318645,20.8316876 54.2310445,20.2378815 55.4450543,19.0502693 C56.6672119,17.8626571 57.2782907,16.3963196 57.2782907,14.6512567 C57.2782907,12.8819569 56.6998028,11.4479354 55.5428269,10.3491921 C54.3939988,9.23429084 52.9070404,8.67684022 51.0819517,8.67684022 C49.2242722,8.67684022 47.6762059,9.26660682 46.4377529,10.44614 C45.2074476,11.6175943 44.5922949,13.0879713 44.5922949,14.8572711 C44.5922949,16.5861759 45.1870783,18.016158 46.376645,19.1472172 C47.558064,20.2701975 49.0816871,20.8316876 50.9475144,20.8316876 Z M50.8986281,18.6018851 C49.8394248,18.6018851 48.9757668,18.2504488 48.307654,17.5475763 C47.6395412,16.8608618 47.3054848,15.9519749 47.3054848,14.8209156 C47.3054848,13.6979354 47.6599105,12.7648115 48.3687619,12.021544 C49.0776133,11.2863555 49.9738622,10.9187612 51.0575086,10.9187612 C52.1004164,10.9187612 52.9437051,11.25 53.5873748,11.9124776 C54.2310445,12.5507181 54.5528793,13.4192101 54.5528793,14.5179533 C54.5528793,15.7136445 54.2066013,16.6912029 53.5140453,17.4506284 C52.8296371,18.2181329 51.9578313,18.6018851 50.8986281,18.6018851 Z M61.506956,27 L62.5213468,18.8321364 C63.1813119,19.551167 63.8046123,20.0480251 64.3912479,20.322711 C64.9534404,20.5973968 65.6745134,20.7347397 66.5544668,20.7347397 C68.2736352,20.7347397 69.7117073,20.1247756 70.8686831,18.9048474 C72.0338067,17.6768402 72.6163685,16.1660682 72.6163685,14.3725314 C72.6163685,12.7567325 72.1071362,11.4196589 71.0886715,10.3613106 C70.0702068,9.3029623 68.7950891,8.77378815 67.2633182,8.77378815 C65.9759789,8.77378815 64.7497475,9.26660682 63.5846239,10.2522442 L63.5846239,10.2522442 L63.7312828,9.05251346 L61.0303145,9.05251346 L58.8059877,27 L61.506956,27 Z M66.2733706,18.5049372 C65.2956445,18.5049372 64.4971682,18.1898564 63.8779417,17.5596948 C63.2587152,16.9456912 62.9491019,16.1337522 62.9491019,15.1238779 C62.9491019,13.9685817 63.3157492,12.9950628 64.0490438,12.2033214 C64.7823383,11.4115799 65.6948827,11.0157092 66.7866768,11.0157092 C67.6992211,11.0157092 68.4488111,11.3429084 69.0354468,11.997307 C69.6220824,12.6436266 69.9154002,13.4717235 69.9154002,14.4815978 C69.9154002,15.5964991 69.5650484,16.5498205 68.8643447,17.3415619 C68.163641,18.1171454 67.299983,18.5049372 66.2733706,18.5049372 Z M77.8349814,20.4681329 L78.9471448,11.5368043 L81.4403463,11.5368043 L81.7458857,9.05251346 L79.2526842,9.05251346 L79.9126493,3.7567325 L77.211681,3.7567325 L76.5517159,9.05251346 L75.024019,9.05251346 L74.7184796,11.5368043 L76.2461765,11.5368043 L75.1340131,20.4681329 L77.8349814,20.4681329 Z M87.4900264,20.7347397 C88.9810586,20.7347397 90.1828469,20.3792639 91.0953913,19.6683124 C91.6331406,19.2482047 92.0160833,18.7675045 92.2442194,18.2262118 C92.3582875,17.943447 92.4642078,17.5920108 92.5619804,17.1719031 C92.659753,16.7517953 92.7412302,16.2589767 92.8064119,15.693447 L92.8064119,15.693447 L93.6252575,9.05251346 L90.9365108,9.05251346 L90.0932221,15.8267504 C89.9710063,16.8204668 89.7265748,17.5152603 89.3599275,17.9111311 C88.9932802,18.3070018 88.42294,18.5049372 87.6489069,18.5049372 C86.2230564,18.5049372 85.5101311,17.9030521 85.5101311,16.6992819 C85.5101311,16.561939 85.5182788,16.3902603 85.5345742,16.184246 C85.5508697,15.9782316 85.5753128,15.7378815 85.6079037,15.4631957 L85.6079037,15.4631957 L86.4023061,9.05251346 L83.7013379,9.05251346 L82.9436001,15.2208259 C82.9028616,15.5439856 82.8723076,15.8307899 82.8519383,16.0812388 C82.831569,16.3316876 82.8213844,16.5498205 82.8213844,16.7356373 C82.8213844,17.9555655 83.2450657,18.9290844 84.0924283,19.6561939 C84.9397909,20.3752244 86.0723236,20.7347397 87.4900264,20.7347397 Z M102.999206,20.7347397 C104.677636,20.7347397 106.099413,20.1288151 107.264536,18.9169659 C108.421512,17.7212747 109,16.2226212 109,14.4210054 C109,12.7809695 108.490768,11.4317774 107.472303,10.3734291 C106.453838,9.3070018 105.162425,8.77378815 103.598063,8.77378815 C102.962541,8.77378815 102.371832,8.86669659 101.825935,9.05251346 C101.304481,9.23025135 100.689328,9.58168761 99.980477,10.1068223 L99.980477,10.1068223 L101.239299,0 L98.538331,0 L95.9962432,20.4681329 L98.6972115,20.4681329 L98.8927567,18.9412029 C100.066028,20.1368941 101.434845,20.7347397 102.999206,20.7347397 Z M102.534786,18.5049372 C101.581503,18.5049372 100.80747,18.1898564 100.212687,17.5596948 C99.6179036,16.9456912 99.3205119,16.1337522 99.3205119,15.1238779 C99.3205119,13.9201077 99.6667899,12.9385099 100.359346,12.1790844 C101.051902,11.4035009 101.927781,11.0157092 102.986985,11.0157092 C103.964711,11.0157092 104.759113,11.3388689 105.370192,11.9851885 C105.981271,12.6315081 106.28681,13.4636445 106.28681,14.4815978 C106.28681,15.5964991 105.920163,16.545781 105.186868,17.3294434 C104.469869,18.1131059 103.585842,18.5049372 102.534786,18.5049372 Z" id="hoptub" fill-rule="nonzero"></path>
            </g>
        </g>
    </g>
</svg>