<svg width="18" height="15" viewBox="0 0 18 15" fill="none" xmlns="http://www.w3.org/2000/svg">
<path fill-rule="evenodd" clip-rule="evenodd" d="M1.10582 14.7015C1.47895 14.9254 1.85209 15 2.22522 15H14.9118C15.5088 15 16.0312 14.7761 16.4043 14.3284C16.8521 13.9552 17.076 13.3582 17.076 12.7612C17.076 12.3881 17.0013 12.0149 16.7775 11.6418L10.5088 1.1194C10.1357 0.597015 9.68791 0.223881 9.0909 0.0746269C8.49388 -0.0746269 7.89686 0 7.37448 0.298507C7.07597 0.447761 6.77746 0.746269 6.62821 1.04478L0.284924 11.6418C-0.312091 12.6866 0.0610438 14.1045 1.10582 14.7015ZM1.62821 12.388L7.89687 1.86564C7.97149 1.71639 8.04612 1.64176 8.19537 1.56714C8.56851 1.41788 9.01627 1.49251 9.24015 1.86564L15.5088 12.388C15.5834 12.5373 15.5834 12.6119 15.5834 12.7612C15.5834 12.985 15.5088 13.1343 15.3596 13.2836C15.2103 13.4328 15.061 13.5074 14.8372 13.5074H2.22522C2.1506 13.5074 2.00134 13.5074 1.92672 13.4328C1.55358 13.2089 1.40433 12.7612 1.62821 12.388ZM9.31477 8.2836V5.29852C9.31477 4.85076 9.01627 4.55226 8.56851 4.55226C8.12074 4.55226 7.82224 4.85076 7.82224 5.29852V8.2836C7.82224 8.73136 8.12074 9.02987 8.56851 9.02987C9.01627 9.02987 9.31477 8.73136 9.31477 8.2836ZM9.31477 11.2687C9.31477 11.4926 9.24015 11.6418 9.09089 11.7911C8.94164 11.9403 8.79239 12.015 8.49388 12.015C8.27 12.015 8.12074 11.9403 7.97149 11.7911C7.82224 11.6418 7.74761 11.4926 7.74761 11.2687C7.74761 11.1813 7.77322 11.1194 7.79443 11.0682C7.80943 11.032 7.82224 11.0011 7.82224 10.9702C7.82224 10.8955 7.89686 10.8209 7.97149 10.7463C8.04612 10.6717 8.12074 10.597 8.19537 10.597C8.34462 10.5224 8.49388 10.5224 8.64313 10.5224C8.68605 10.5653 8.70428 10.5836 8.72622 10.5913C8.74244 10.597 8.76067 10.597 8.79239 10.597C8.8297 10.597 8.84836 10.6157 8.86701 10.6344C8.88567 10.653 8.90433 10.6717 8.94164 10.6717C9.01627 10.6717 9.09089 10.7463 9.09089 10.7463C9.16552 10.8209 9.24015 10.8955 9.24015 10.9702C9.31477 11.0448 9.31477 11.1941 9.31477 11.2687Z" fill="#B71C1C"/>
</svg>
